{
  "asset": {
    "generator": "Khronos glTF Blender I/O v1.6.16",
    "version": "2.0"
  },
  "scene": 0,
  "scenes": [
    {
      "name": "Scene",
      "nodes": [
        0
      ]
    }
  ],
  "nodes": [
    {
      "mesh": 0,
      "name": "wooden_stool_01"
    }
  ],
  "materials": [
    {
      "doubleSided": true,
      "name": "wooden_stool_01",
      "normalTexture": {
        "index": 0
      },
      "pbrMetallicRoughness": {
        "baseColorTexture": {
          "index": 1
        },
        "metallicFactor": 0,
        "metallicRoughnessTexture": {
          "index": 2
        }
      }
    }
  ],
  "meshes": [
    {
      "name": "Slice.003",
      "primitives": [
        {
          "attributes": {
            "POSITION": 0,
            "NORMAL": 1,
            "TEXCOORD_0": 2
          },
          "indices": 3,
          "material": 0
        }
      ]
    }
  ],
  "textures": [
    {
      "sampler": 0,
      "source": 0
    },
    {
      "sampler": 0,
      "source": 1
    },
    {
      "sampler": 0,
      "source": 2
    }
  ],
  "images": [
    {
      "mimeType": "image/jpeg",
      "name": "wooden_stool_01_nor_gl",
      "uri": "textures/wooden_stool_01_nor_gl_2k.jpg"
    },
    {
      "mimeType": "image/jpeg",
      "name": "wooden_stool_01_diff",
      "uri": "textures/wooden_stool_01_diff_2k.jpg"
    },
    {
      "mimeType": "image/jpeg",
      "name": "wooden_stool_01_rough",
      "uri": "textures/wooden_stool_01_rough_2k.jpg"
    }
  ],
  "accessors": [
    {
      "bufferView": 0,
      "componentType": 5126,
      "count": 7039,
      "max": [
        0.21267758309841156,
        0.43738946318626404,
        0.22118140757083893
      ],
      "min": [
        -0.21267758309841156,
        0.00003679741712403484,
        -0.22118140757083893
      ],
      "type": "VEC3"
    },
    {
      "bufferView": 1,
      "componentType": 5126,
      "count": 7039,
      "type": "VEC3"
    },
    {
      "bufferView": 2,
      "componentType": 5126,
      "count": 7039,
      "type": "VEC2"
    },
    {
      "bufferView": 3,
      "componentType": 5123,
      "count": 32838,
      "type": "SCALAR"
    }
  ],
  "bufferViews": [
    {
      "buffer": 0,
      "byteLength": 84468,
      "byteOffset": 0
    },
    {
      "buffer": 0,
      "byteLength": 84468,
      "byteOffset": 84468
    },
    {
      "buffer": 0,
      "byteLength": 56312,
      "byteOffset": 168936
    },
    {
      "buffer": 0,
      "byteLength": 65676,
      "byteOffset": 225248
    }
  ],
  "samplers": [
    {
      "magFilter": 9729,
      "minFilter": 9987
    }
  ],
  "buffers": [
    {
      "byteLength": 290924,
      "uri": "wooden_stool_01.bin"
    }
  ]
}